<?xml version="1.0" encoding="UTF-8" standalone="no"?>
<!-- Generator: Adobe Illustrator 18.1.1, SVG Export Plug-In . SVG Version: 6.00 Build 0)  -->

<svg
   xmlns:dc="http://purl.org/dc/elements/1.1/"
   xmlns:cc="http://creativecommons.org/ns#"
   xmlns:rdf="http://www.w3.org/1999/02/22-rdf-syntax-ns#"
   xmlns:svg="http://www.w3.org/2000/svg"
   xmlns="http://www.w3.org/2000/svg"
   xmlns:sodipodi="http://sodipodi.sourceforge.net/DTD/sodipodi-0.dtd"
   xmlns:inkscape="http://www.inkscape.org/namespaces/inkscape"
   version="1.1"
   id="Capa_1"
   x="0px"
   y="0px"
   viewBox="0 0 300.59525 132.98254"
   xml:space="preserve"
   sodipodi:docname="jvm.svg"
   width="300.59525"
   height="132.98254"
   inkscape:version="0.92.2 5c3e80d, 2017-08-06"><metadata
     id="metadata139"><rdf:RDF><cc:Work
         rdf:about=""><dc:format>image/svg+xml</dc:format><dc:type
           rdf:resource="http://purl.org/dc/dcmitype/StillImage" /><dc:title></dc:title></cc:Work></rdf:RDF></metadata><defs
     id="defs137" /><sodipodi:namedview
     pagecolor="#ffffff"
     bordercolor="#666666"
     borderopacity="1"
     objecttolerance="10"
     gridtolerance="10"
     guidetolerance="10"
     inkscape:pageopacity="0"
     inkscape:pageshadow="2"
     inkscape:window-width="1672"
     inkscape:window-height="1064"
     id="namedview135"
     showgrid="false"
     fit-margin-top="0"
     fit-margin-left="0"
     fit-margin-right="0"
     fit-margin-bottom="0"
     inkscape:zoom="2.7421159"
     inkscape:cx="135.99413"
     inkscape:cy="68.013179"
     inkscape:window-x="0"
     inkscape:window-y="0"
     inkscape:window-maximized="0"
     inkscape:current-layer="Capa_1" /><g
     id="g102"
     transform="matrix(0.21112854,0,0,0.21112854,4.1612331,43.591528)"><path
       id="rect34754"
       d="M 75.067,2.72 C 73.792,2.757 72.58,3.28 71.678,4.181 l -15,15 c -1.975,1.93 -2.012,5.096 -0.082,7.071 1.93,1.975 5.096,2.012 7.071,0.082 0.028,-0.027 0.056,-0.055 0.083,-0.083 l 6.463,-6.463 v 42.928 h -10 c -2.761,-0.039 -5.032,2.168 -5.071,4.929 -0.039,2.761 2.168,5.032 4.929,5.071 0.047,0.001 0.094,0.001 0.141,0 h 14.182 c 0.535,0.088 1.08,0.088 1.615,0 h 9.203 c 2.761,0.039 5.032,-2.168 5.071,-4.929 0.039,-2.761 -2.168,-5.032 -4.929,-5.071 -0.047,-10e-4 -0.094,-10e-4 -0.141,0 h -5 v -55 C 80.212,4.954 77.972,2.717 75.21,2.718 c -0.047,0 -0.095,10e-4 -0.143,0.002 z m 55.143,0 c -1.275,0.037 -2.487,0.56 -3.389,1.461 l -15,15 c -1.992,1.913 -2.057,5.078 -0.144,7.07 1.913,1.992 5.078,2.057 7.07,0.144 0.049,-0.047 0.097,-0.095 0.144,-0.144 l 6.465,-6.465 v 42.93 h -10 c -2.761,-0.039 -5.032,2.168 -5.071,4.929 -0.039,2.761 2.168,5.032 4.929,5.071 0.047,0.001 0.094,0.001 0.141,0 h 14.182 c 0.537,0.088 1.084,0.088 1.621,0 h 9.197 c 2.761,0.039 5.032,-2.168 5.071,-4.929 0.039,-2.761 -2.168,-5.032 -4.929,-5.071 -0.047,-10e-4 -0.094,-10e-4 -0.141,0 h -5 v -55 c -0.001,-2.762 -2.241,-4.999 -5.003,-4.998 -0.047,0 -0.095,10e-4 -0.143,0.002 z M 17.571,2.754 c -9.609,0 -17.5,7.891 -17.5,17.5 v 35 c 0,9.609 7.891,17.5 17.5,17.5 9.609,0 17.5,-7.891 17.5,-17.5 v -35 c 0,-9.609 -7.891,-17.5 -17.5,-17.5 z m 165.428,0 c -9.609,0 -17.5,7.891 -17.5,17.5 v 35 c 0,9.609 7.891,17.5 17.5,17.5 9.609,0 17.5,-7.891 17.5,-17.5 v -35 c 0,-9.609 -7.892,-17.5 -17.5,-17.5 z m 55.143,0 c -9.609,0 -17.5,7.891 -17.5,17.5 v 35 c 0,9.609 7.891,17.5 17.5,17.5 9.609,0 17.5,-7.891 17.5,-17.5 v -35 c 0,-9.609 -7.892,-17.5 -17.5,-17.5 z m -220.571,10 c 4.241,0 7.5,3.259 7.5,7.5 v 35 c 0,4.241 -3.259,7.5 -7.5,7.5 -4.241,0 -7.5,-3.259 -7.5,-7.5 v -35 c 0,-4.242 3.259,-7.5 7.5,-7.5 z m 165.428,0 c 4.241,0 7.5,3.259 7.5,7.5 v 35 c 0,4.241 -3.259,7.5 -7.5,7.5 -4.241,0 -7.5,-3.259 -7.5,-7.5 v -35 c 0,-4.242 3.258,-7.5 7.5,-7.5 z m 55.143,0 c 4.241,0 7.5,3.259 7.5,7.5 v 35 c 0,4.241 -3.259,7.5 -7.5,7.5 -4.241,0 -7.5,-3.259 -7.5,-7.5 v -35 c 0,-4.242 3.258,-7.5 7.5,-7.5 z M 19.925,92.791 c -1.275,0.037 -2.487,0.56 -3.389,1.461 l -15,15 c -1.952,1.954 -1.949,5.121 0.005,7.072 1.952,1.95 5.115,1.95 7.067,0 l 6.463,-6.463 v 42.928 h -10 C 2.31,152.75 0.039,154.957 0,157.718 c -0.039,2.761 2.168,5.032 4.929,5.071 0.047,0.001 0.094,0.001 0.141,0 h 14.182 c 0.537,0.088 1.084,0.088 1.621,0 h 9.197 c 2.761,0.039 5.032,-2.168 5.071,-4.929 0.039,-2.761 -2.168,-5.032 -4.929,-5.071 -0.047,-10e-4 -0.094,-10e-4 -0.141,0 h -5 v -55 c 0,-2.762 -2.239,-5 -5.001,-5 -0.048,0 -0.097,0 -0.145,0.002 z m 110.285,0 c -1.275,0.037 -2.487,0.56 -3.389,1.461 l -15,15 c -1.976,1.93 -2.013,5.095 -0.084,7.071 1.93,1.976 5.095,2.013 7.071,0.084 0.028,-0.027 0.056,-0.055 0.083,-0.083 l 6.465,-6.465 v 42.93 h -10 c -2.761,-0.039 -5.032,2.168 -5.071,4.929 -0.039,2.761 2.168,5.032 4.929,5.071 0.047,0.001 0.094,0.001 0.141,0 h 14.182 c 0.537,0.088 1.084,0.088 1.621,0 h 9.197 c 2.761,0.039 5.032,-2.168 5.071,-4.929 0.039,-2.761 -2.168,-5.032 -4.929,-5.071 -0.047,-10e-4 -0.094,-10e-4 -0.141,0 h -5 v -55 c 0,-2.762 -2.239,-5 -5.001,-5 -0.048,0 -0.097,0 -0.145,0.002 z m 55.142,0 c -1.275,0.037 -2.487,0.56 -3.389,1.461 l -15,15 c -1.976,1.93 -2.013,5.095 -0.084,7.071 1.93,1.976 5.095,2.013 7.071,0.084 0.028,-0.027 0.056,-0.055 0.083,-0.083 l 6.465,-6.465 v 42.93 h -10 c -2.761,-0.039 -5.032,2.168 -5.071,4.929 -0.039,2.761 2.168,5.032 4.929,5.071 0.047,0.001 0.094,0.001 0.141,0 h 14.182 c 0.537,0.088 1.084,0.088 1.621,0 h 9.197 c 2.761,0.039 5.032,-2.168 5.071,-4.929 0.039,-2.761 -2.168,-5.032 -4.929,-5.071 -0.047,-10e-4 -0.094,-10e-4 -0.141,0 h -5 v -55 c 0,-2.762 -2.239,-5 -5.001,-5 -0.047,0 -0.096,0 -0.145,0.002 z M 72.714,92.824 c -9.609,0 -17.5,7.891 -17.5,17.5 v 35 c 0,9.609 7.891,17.5 17.5,17.5 9.609,0 17.5,-7.891 17.5,-17.5 v -35 c 0,-9.609 -7.892,-17.5 -17.5,-17.5 z m 165.428,0 c -9.609,0 -17.5,7.891 -17.5,17.5 v 35 c 0,9.609 7.891,17.5 17.5,17.5 9.609,0 17.5,-7.891 17.5,-17.5 v -35 c 0,-9.609 -7.892,-17.5 -17.5,-17.5 z m -165.428,10 c 4.241,0 7.5,3.259 7.5,7.5 v 35 c 0,4.241 -3.259,7.5 -7.5,7.5 -4.241,0 -7.5,-3.259 -7.5,-7.5 v -35 c 0,-4.242 3.258,-7.5 7.5,-7.5 z m 165.428,0 c 4.241,0 7.5,3.259 7.5,7.5 v 35 c 0,4.241 -3.259,7.5 -7.5,7.5 -4.241,0 -7.5,-3.259 -7.5,-7.5 v -35 c 0,-4.242 3.258,-7.5 7.5,-7.5 z M 19.925,182.861 c -1.275,0.037 -2.487,0.56 -3.389,1.461 l -15,15 c -1.953,1.953 -1.953,5.119 0,7.072 1.953,1.953 5.119,1.953 7.072,0 l 6.463,-6.463 v 42.926 h -10 C 2.31,242.818 0.039,245.025 0,247.786 c -0.039,2.761 2.168,5.032 4.929,5.071 0.047,0.001 0.094,0.001 0.141,0 h 14.182 c 0.537,0.088 1.084,0.088 1.621,0 h 9.197 c 2.761,0.039 5.032,-2.168 5.071,-4.929 0.039,-2.761 -2.168,-5.032 -4.929,-5.071 -0.047,-0.001 -0.094,-0.001 -0.141,0 h -5 v -55 c -0.001,-2.762 -2.241,-4.999 -5.003,-4.998 -0.047,0 -0.095,0.001 -0.143,0.002 z m 55.142,0 c -1.275,0.037 -2.487,0.56 -3.389,1.461 l -15,15 c -1.953,1.953 -1.953,5.119 0,7.072 1.953,1.953 5.119,1.953 7.072,0 l 6.463,-6.463 v 42.926 h -10 c -2.761,-0.039 -5.032,2.168 -5.071,4.929 -0.039,2.761 2.168,5.032 4.929,5.071 0.047,0.001 0.094,0.001 0.141,0 h 14.182 c 0.535,0.088 1.08,0.088 1.615,0 h 9.203 c 2.761,0.039 5.032,-2.168 5.071,-4.929 0.039,-2.761 -2.168,-5.032 -4.929,-5.071 -0.047,-0.001 -0.094,-0.001 -0.141,0 h -5 v -55 c -10e-4,-2.762 -2.241,-4.999 -5.003,-4.998 -0.047,0 -0.095,0.001 -0.143,0.002 z m 55.143,0 c -1.275,0.037 -2.487,0.56 -3.389,1.461 l -15,15 c -1.976,1.93 -2.013,5.095 -0.084,7.071 1.93,1.976 5.095,2.013 7.071,0.084 0.028,-0.027 0.056,-0.055 0.083,-0.083 l 6.465,-6.465 v 42.928 h -10 c -2.761,-0.039 -5.032,2.168 -5.071,4.929 -0.039,2.761 2.168,5.032 4.929,5.071 0.047,0.001 0.094,0.001 0.141,0 h 14.182 c 0.537,0.088 1.084,0.088 1.621,0 h 9.197 c 2.761,0.039 5.032,-2.168 5.071,-4.929 0.039,-2.761 -2.168,-5.032 -4.929,-5.071 -0.047,-0.001 -0.094,-0.001 -0.141,0 h -5 v -55 c -0.001,-2.762 -2.241,-4.999 -5.003,-4.998 -0.047,0 -0.095,0.001 -0.143,0.002 z m 55.142,0 c -1.275,0.037 -2.487,0.56 -3.389,1.461 l -15,15 c -1.976,1.93 -2.013,5.095 -0.084,7.071 1.93,1.976 5.095,2.013 7.071,0.084 0.028,-0.027 0.056,-0.055 0.083,-0.083 l 6.465,-6.465 v 42.928 h -10 c -2.761,-0.039 -5.032,2.168 -5.071,4.929 -0.039,2.761 2.168,5.032 4.929,5.071 0.047,0.001 0.094,0.001 0.141,0 h 14.182 c 0.537,0.088 1.084,0.088 1.621,0 h 9.197 c 2.761,0.039 5.032,-2.168 5.071,-4.929 0.039,-2.761 -2.168,-5.032 -4.929,-5.071 -0.047,-0.001 -0.094,-0.001 -0.141,0 h -5 v -55 c -10e-4,-2.762 -2.241,-4.999 -5.003,-4.998 -0.047,0 -0.095,0.001 -0.143,0.002 z m 52.79,0.033 c -9.609,0 -17.5,7.891 -17.5,17.5 v 35 c 0,9.609 7.891,17.5 17.5,17.5 9.609,0 17.5,-7.891 17.5,-17.5 v -35 c 0,-9.608 -7.892,-17.5 -17.5,-17.5 z m 0,10 c 4.241,0 7.5,3.259 7.5,7.5 v 35 c 0,4.241 -3.259,7.5 -7.5,7.5 -4.241,0 -7.5,-3.259 -7.5,-7.5 v -35 c 0,-4.241 3.258,-7.5 7.5,-7.5 z"
       inkscape:connector-curvature="0" /></g><g
     id="g104"
     transform="translate(-13.707778,-62.851642)" /><g
     id="g106"
     transform="translate(-13.707778,-62.851642)" /><g
     id="g108"
     transform="translate(-13.707778,-62.851642)" /><g
     id="g110"
     transform="translate(-13.707778,-62.851642)" /><g
     id="g112"
     transform="translate(-13.707778,-62.851642)" /><g
     id="g114"
     transform="translate(-13.707778,-62.851642)" /><g
     id="g116"
     transform="translate(-13.707778,-62.851642)" /><g
     id="g118"
     transform="translate(-13.707778,-62.851642)" /><g
     id="g120"
     transform="translate(-13.707778,-62.851642)" /><g
     id="g122"
     transform="translate(-13.707778,-62.851642)" /><g
     id="g124"
     transform="translate(-13.707778,-62.851642)" /><g
     id="g126"
     transform="translate(-13.707778,-62.851642)" /><g
     id="g128"
     transform="translate(-13.707778,-62.851642)" /><g
     id="g130"
     transform="translate(-13.707778,-62.851642)" /><g
     id="g132"
     transform="translate(-13.707778,-62.851642)" /><path
     d="M 83.297413,31.235987 V 76.821928 H 174.83257 V 66.245758 Z"
     id="rect3830"
     inkscape:connector-curvature="0" /><path
     inkscape:connector-curvature="0"
     id="path3836"
     d="M 83.297423,115.47821 V 69.892268 h 91.535147 v 10.57617 z" /><text
     xml:space="preserve"
     style="font-style:normal;font-weight:normal;font-size:40px;line-height:125%;font-family:sans-serif;letter-spacing:0px;word-spacing:0px;fill:#000000;fill-opacity:1;stroke:none;stroke-width:1px;stroke-linecap:butt;stroke-linejoin:miter;stroke-opacity:1"
     x="-1.3085938"
     y="10.449414"
     id="text3840"><tspan
       sodipodi:role="line"
       id="tspan3838"
       x="-1.3085938"
       y="10.449414"
       style="font-size:13.33333302px">ByteCode</tspan></text>
<text
     xml:space="preserve"
     style="font-style:normal;font-weight:normal;font-size:40px;line-height:125%;font-family:sans-serif;letter-spacing:0px;word-spacing:0px;fill:#000000;fill-opacity:1;stroke:none;stroke-width:1px;stroke-linecap:butt;stroke-linejoin:miter;stroke-opacity:1"
     x="113.93088"
     y="9.7200518"
     id="text3844"><tspan
       sodipodi:role="line"
       id="tspan3842"
       x="113.93088"
       y="9.7200518"
       style="font-size:13.33333302px">JVM/JIT</tspan></text>
<rect
     id="rect3846"
     width="101.98615"
     height="72.811592"
     x="196.59372"
     y="28.198881"
     ry="10.707587"
     style="fill:none;stroke:#000000;stroke-width:4.03073835;stroke-miterlimit:4;stroke-dasharray:none;stroke-opacity:1" /><rect
     style="fill:#000000;fill-opacity:1;stroke:none;stroke-width:5;stroke-miterlimit:4;stroke-dasharray:none;stroke-opacity:1"
     id="rect4653"
     width="16.410685"
     height="21.151548"
     x="239.38145"
     y="101.2552"
     ry="8.2053423"
     rx="0" /><ellipse
     style="fill:#000000;fill-opacity:1;stroke:none;stroke-width:5;stroke-miterlimit:4;stroke-dasharray:none;stroke-opacity:1"
     id="path4655"
     cx="247.58681"
     cy="123.68315"
     rx="25.710073"
     ry="9.2993879" /></svg>