<?xml version="1.0" encoding="UTF-8" standalone="no"?>
<!-- Created with Inkscape (http://www.inkscape.org/) -->

<svg
   xmlns:dc="http://purl.org/dc/elements/1.1/"
   xmlns:cc="http://creativecommons.org/ns#"
   xmlns:rdf="http://www.w3.org/1999/02/22-rdf-syntax-ns#"
   xmlns:svg="http://www.w3.org/2000/svg"
   xmlns="http://www.w3.org/2000/svg"
   xmlns:sodipodi="http://sodipodi.sourceforge.net/DTD/sodipodi-0.dtd"
   xmlns:inkscape="http://www.inkscape.org/namespaces/inkscape"
   width="269.41196mm"
   height="232.04179mm"
   viewBox="0 0 269.41196 232.04179"
   version="1.1"
   id="svg1261"
   inkscape:version="0.92.2 5c3e80d, 2017-08-06"
   sodipodi:docname="targets.svg">
  <defs
     id="defs1255" />
  <sodipodi:namedview
     id="base"
     pagecolor="#ffffff"
     bordercolor="#666666"
     borderopacity="1.0"
     inkscape:pageopacity="0.0"
     inkscape:pageshadow="2"
     inkscape:zoom="0.35"
     inkscape:cx="493.53553"
     inkscape:cy="636.14271"
     inkscape:document-units="mm"
     inkscape:current-layer="layer1"
     showgrid="false"
     fit-margin-top="0"
     fit-margin-left="0"
     fit-margin-right="0"
     fit-margin-bottom="0"
     inkscape:window-width="1440"
     inkscape:window-height="878"
     inkscape:window-x="0"
     inkscape:window-y="0"
     inkscape:window-maximized="1" />
  <metadata
     id="metadata1258">
    <rdf:RDF>
      <cc:Work
         rdf:about="">
        <dc:format>image/svg+xml</dc:format>
        <dc:type
           rdf:resource="http://purl.org/dc/dcmitype/StillImage" />
        <dc:title></dc:title>
      </cc:Work>
    </rdf:RDF>
  </metadata>
  <g
     inkscape:label="Layer 1"
     inkscape:groupmode="layer"
     id="layer1"
     transform="translate(24.747942,-85.104312)">
    <g
       id="g1327"
       transform="matrix(0.14579081,0,0,0.14579081,152.81579,225.29789)">
      <rect
         id="rect1313"
         height="630"
         width="630"
         x="0"
         y="0"
         style="fill:#f7df1e" />
      <path
         id="path1315"
         d="m 423.2,492.19 c 12.69,20.72 29.2,35.95 58.4,35.95 24.53,0 40.2,-12.26 40.2,-29.2 0,-20.3 -16.1,-27.49 -43.1,-39.3 l -14.8,-6.35 c -42.72,-18.2 -71.1,-41 -71.1,-89.2 0,-44.4 33.83,-78.2 86.7,-78.2 37.64,0 64.7,13.1 84.2,47.4 l -46.1,29.6 c -10.15,-18.2 -21.1,-25.37 -38.1,-25.37 -17.34,0 -28.33,11 -28.33,25.37 0,17.76 11,24.95 36.4,35.95 l 14.8,6.34 c 50.3,21.57 78.7,43.56 78.7,93 0,53.3 -41.87,82.5 -98.1,82.5 -54.98,0 -90.5,-26.2 -107.88,-60.54 z m -209.13,5.13 c 9.3,16.5 17.76,30.45 38.1,30.45 19.45,0 31.72,-7.61 31.72,-37.2 v -201.3 h 59.2 v 202.1 c 0,61.3 -35.94,89.2 -88.4,89.2 -47.4,0 -74.85,-24.53 -88.81,-54.075 z"
         inkscape:connector-curvature="0" />
    </g>
    <g
       id="g1464"
       transform="matrix(0.30688198,0,0,0.30688198,-24.747786,237.36349)">
      <g
         id="g1408">
        <path
           d="M 75.067,2.72 C 73.792,2.757 72.58,3.28 71.678,4.181 l -15,15 c -1.975,1.93 -2.012,5.096 -0.082,7.071 1.93,1.975 5.096,2.012 7.071,0.082 0.028,-0.027 0.056,-0.055 0.083,-0.083 l 6.463,-6.463 v 42.928 h -10 c -2.761,-0.039 -5.032,2.168 -5.071,4.929 -0.039,2.761 2.168,5.032 4.929,5.071 0.047,0.001 0.094,0.001 0.141,0 h 14.182 c 0.535,0.088 1.08,0.088 1.615,0 h 9.203 c 2.761,0.039 5.032,-2.168 5.071,-4.929 0.039,-2.761 -2.168,-5.032 -4.929,-5.071 -0.047,-10e-4 -0.094,-10e-4 -0.141,0 h -5 v -55 C 80.212,4.954 77.972,2.717 75.21,2.718 c -0.047,0 -0.095,10e-4 -0.143,0.002 z m 55.143,0 c -1.275,0.037 -2.487,0.56 -3.389,1.461 l -15,15 c -1.992,1.913 -2.057,5.078 -0.144,7.07 1.913,1.992 5.078,2.057 7.07,0.144 0.049,-0.047 0.097,-0.095 0.144,-0.144 l 6.465,-6.465 v 42.93 h -10 c -2.761,-0.039 -5.032,2.168 -5.071,4.929 -0.039,2.761 2.168,5.032 4.929,5.071 0.047,0.001 0.094,0.001 0.141,0 h 14.182 c 0.537,0.088 1.084,0.088 1.621,0 h 9.197 c 2.761,0.039 5.032,-2.168 5.071,-4.929 0.039,-2.761 -2.168,-5.032 -4.929,-5.071 -0.047,-10e-4 -0.094,-10e-4 -0.141,0 h -5 v -55 c -0.001,-2.762 -2.241,-4.999 -5.003,-4.998 -0.047,0 -0.095,10e-4 -0.143,0.002 z M 17.571,2.754 c -9.609,0 -17.5,7.891 -17.5,17.5 v 35 c 0,9.609 7.891,17.5 17.5,17.5 9.609,0 17.5,-7.891 17.5,-17.5 v -35 c 0,-9.609 -7.891,-17.5 -17.5,-17.5 z m 165.428,0 c -9.609,0 -17.5,7.891 -17.5,17.5 v 35 c 0,9.609 7.891,17.5 17.5,17.5 9.609,0 17.5,-7.891 17.5,-17.5 v -35 c 0,-9.609 -7.892,-17.5 -17.5,-17.5 z m 55.143,0 c -9.609,0 -17.5,7.891 -17.5,17.5 v 35 c 0,9.609 7.891,17.5 17.5,17.5 9.609,0 17.5,-7.891 17.5,-17.5 v -35 c 0,-9.609 -7.892,-17.5 -17.5,-17.5 z m -220.571,10 c 4.241,0 7.5,3.259 7.5,7.5 v 35 c 0,4.241 -3.259,7.5 -7.5,7.5 -4.241,0 -7.5,-3.259 -7.5,-7.5 v -35 c 0,-4.242 3.259,-7.5 7.5,-7.5 z m 165.428,0 c 4.241,0 7.5,3.259 7.5,7.5 v 35 c 0,4.241 -3.259,7.5 -7.5,7.5 -4.241,0 -7.5,-3.259 -7.5,-7.5 v -35 c 0,-4.242 3.258,-7.5 7.5,-7.5 z m 55.143,0 c 4.241,0 7.5,3.259 7.5,7.5 v 35 c 0,4.241 -3.259,7.5 -7.5,7.5 -4.241,0 -7.5,-3.259 -7.5,-7.5 v -35 c 0,-4.242 3.258,-7.5 7.5,-7.5 z M 19.925,92.791 c -1.275,0.037 -2.487,0.56 -3.389,1.461 l -15,15 c -1.952,1.954 -1.949,5.121 0.005,7.072 1.952,1.95 5.115,1.95 7.067,0 l 6.463,-6.463 v 42.928 h -10 C 2.31,152.75 0.039,154.957 0,157.718 c -0.039,2.761 2.168,5.032 4.929,5.071 0.047,0.001 0.094,0.001 0.141,0 h 14.182 c 0.537,0.088 1.084,0.088 1.621,0 h 9.197 c 2.761,0.039 5.032,-2.168 5.071,-4.929 0.039,-2.761 -2.168,-5.032 -4.929,-5.071 -0.047,-10e-4 -0.094,-10e-4 -0.141,0 h -5 v -55 c 0,-2.762 -2.239,-5 -5.001,-5 -0.048,0 -0.097,0 -0.145,0.002 z m 110.285,0 c -1.275,0.037 -2.487,0.56 -3.389,1.461 l -15,15 c -1.976,1.93 -2.013,5.095 -0.084,7.071 1.93,1.976 5.095,2.013 7.071,0.084 0.028,-0.027 0.056,-0.055 0.083,-0.083 l 6.465,-6.465 v 42.93 h -10 c -2.761,-0.039 -5.032,2.168 -5.071,4.929 -0.039,2.761 2.168,5.032 4.929,5.071 0.047,0.001 0.094,0.001 0.141,0 h 14.182 c 0.537,0.088 1.084,0.088 1.621,0 h 9.197 c 2.761,0.039 5.032,-2.168 5.071,-4.929 0.039,-2.761 -2.168,-5.032 -4.929,-5.071 -0.047,-10e-4 -0.094,-10e-4 -0.141,0 h -5 v -55 c 0,-2.762 -2.239,-5 -5.001,-5 -0.048,0 -0.097,0 -0.145,0.002 z m 55.142,0 c -1.275,0.037 -2.487,0.56 -3.389,1.461 l -15,15 c -1.976,1.93 -2.013,5.095 -0.084,7.071 1.93,1.976 5.095,2.013 7.071,0.084 0.028,-0.027 0.056,-0.055 0.083,-0.083 l 6.465,-6.465 v 42.93 h -10 c -2.761,-0.039 -5.032,2.168 -5.071,4.929 -0.039,2.761 2.168,5.032 4.929,5.071 0.047,0.001 0.094,0.001 0.141,0 h 14.182 c 0.537,0.088 1.084,0.088 1.621,0 h 9.197 c 2.761,0.039 5.032,-2.168 5.071,-4.929 0.039,-2.761 -2.168,-5.032 -4.929,-5.071 -0.047,-10e-4 -0.094,-10e-4 -0.141,0 h -5 v -55 c 0,-2.762 -2.239,-5 -5.001,-5 -0.047,0 -0.096,0 -0.145,0.002 z M 72.714,92.824 c -9.609,0 -17.5,7.891 -17.5,17.5 v 35 c 0,9.609 7.891,17.5 17.5,17.5 9.609,0 17.5,-7.891 17.5,-17.5 v -35 c 0,-9.609 -7.892,-17.5 -17.5,-17.5 z m 165.428,0 c -9.609,0 -17.5,7.891 -17.5,17.5 v 35 c 0,9.609 7.891,17.5 17.5,17.5 9.609,0 17.5,-7.891 17.5,-17.5 v -35 c 0,-9.609 -7.892,-17.5 -17.5,-17.5 z m -165.428,10 c 4.241,0 7.5,3.259 7.5,7.5 v 35 c 0,4.241 -3.259,7.5 -7.5,7.5 -4.241,0 -7.5,-3.259 -7.5,-7.5 v -35 c 0,-4.242 3.258,-7.5 7.5,-7.5 z m 165.428,0 c 4.241,0 7.5,3.259 7.5,7.5 v 35 c 0,4.241 -3.259,7.5 -7.5,7.5 -4.241,0 -7.5,-3.259 -7.5,-7.5 v -35 c 0,-4.242 3.258,-7.5 7.5,-7.5 z M 19.925,182.861 c -1.275,0.037 -2.487,0.56 -3.389,1.461 l -15,15 c -1.953,1.953 -1.953,5.119 0,7.072 1.953,1.953 5.119,1.953 7.072,0 l 6.463,-6.463 v 42.926 h -10 C 2.31,242.818 0.039,245.025 0,247.786 c -0.039,2.761 2.168,5.032 4.929,5.071 0.047,0.001 0.094,0.001 0.141,0 h 14.182 c 0.537,0.088 1.084,0.088 1.621,0 h 9.197 c 2.761,0.039 5.032,-2.168 5.071,-4.929 0.039,-2.761 -2.168,-5.032 -4.929,-5.071 -0.047,-0.001 -0.094,-0.001 -0.141,0 h -5 v -55 c -0.001,-2.762 -2.241,-4.999 -5.003,-4.998 -0.047,0 -0.095,0.001 -0.143,0.002 z m 55.142,0 c -1.275,0.037 -2.487,0.56 -3.389,1.461 l -15,15 c -1.953,1.953 -1.953,5.119 0,7.072 1.953,1.953 5.119,1.953 7.072,0 l 6.463,-6.463 v 42.926 h -10 c -2.761,-0.039 -5.032,2.168 -5.071,4.929 -0.039,2.761 2.168,5.032 4.929,5.071 0.047,0.001 0.094,0.001 0.141,0 h 14.182 c 0.535,0.088 1.08,0.088 1.615,0 h 9.203 c 2.761,0.039 5.032,-2.168 5.071,-4.929 0.039,-2.761 -2.168,-5.032 -4.929,-5.071 -0.047,-0.001 -0.094,-0.001 -0.141,0 h -5 v -55 c -10e-4,-2.762 -2.241,-4.999 -5.003,-4.998 -0.047,0 -0.095,0.001 -0.143,0.002 z m 55.143,0 c -1.275,0.037 -2.487,0.56 -3.389,1.461 l -15,15 c -1.976,1.93 -2.013,5.095 -0.084,7.071 1.93,1.976 5.095,2.013 7.071,0.084 0.028,-0.027 0.056,-0.055 0.083,-0.083 l 6.465,-6.465 v 42.928 h -10 c -2.761,-0.039 -5.032,2.168 -5.071,4.929 -0.039,2.761 2.168,5.032 4.929,5.071 0.047,0.001 0.094,0.001 0.141,0 h 14.182 c 0.537,0.088 1.084,0.088 1.621,0 h 9.197 c 2.761,0.039 5.032,-2.168 5.071,-4.929 0.039,-2.761 -2.168,-5.032 -4.929,-5.071 -0.047,-0.001 -0.094,-0.001 -0.141,0 h -5 v -55 c -0.001,-2.762 -2.241,-4.999 -5.003,-4.998 -0.047,0 -0.095,0.001 -0.143,0.002 z m 55.142,0 c -1.275,0.037 -2.487,0.56 -3.389,1.461 l -15,15 c -1.976,1.93 -2.013,5.095 -0.084,7.071 1.93,1.976 5.095,2.013 7.071,0.084 0.028,-0.027 0.056,-0.055 0.083,-0.083 l 6.465,-6.465 v 42.928 h -10 c -2.761,-0.039 -5.032,2.168 -5.071,4.929 -0.039,2.761 2.168,5.032 4.929,5.071 0.047,0.001 0.094,0.001 0.141,0 h 14.182 c 0.537,0.088 1.084,0.088 1.621,0 h 9.197 c 2.761,0.039 5.032,-2.168 5.071,-4.929 0.039,-2.761 -2.168,-5.032 -4.929,-5.071 -0.047,-0.001 -0.094,-0.001 -0.141,0 h -5 v -55 c -10e-4,-2.762 -2.241,-4.999 -5.003,-4.998 -0.047,0 -0.095,0.001 -0.143,0.002 z m 52.79,0.033 c -9.609,0 -17.5,7.891 -17.5,17.5 v 35 c 0,9.609 7.891,17.5 17.5,17.5 9.609,0 17.5,-7.891 17.5,-17.5 v -35 c 0,-9.608 -7.892,-17.5 -17.5,-17.5 z m 0,10 c 4.241,0 7.5,3.259 7.5,7.5 v 35 c 0,4.241 -3.259,7.5 -7.5,7.5 -4.241,0 -7.5,-3.259 -7.5,-7.5 v -35 c 0,-4.241 3.258,-7.5 7.5,-7.5 z"
           id="rect34754"
           inkscape:connector-curvature="0" />
      </g>
      <g
         id="g1410" />
      <g
         id="g1412" />
      <g
         id="g1414" />
      <g
         id="g1416" />
      <g
         id="g1418" />
      <g
         id="g1420" />
      <g
         id="g1422" />
      <g
         id="g1424" />
      <g
         id="g1426" />
      <g
         id="g1428" />
      <g
         id="g1430" />
      <g
         id="g1432" />
      <g
         id="g1434" />
      <g
         id="g1436" />
      <g
         id="g1438" />
    </g>
    <g
       transform="matrix(0.26458333,0,0,0.26458333,1086.5707,292.24499)"
       id="layer1-9"
       inkscape:label="Ebene 1">
      <g
         transform="translate(-3826.724,-785.8793)"
         id="Ebene_x0020_1">
        <metadata
           id="CorelCorpID_0Corel-Layer" />
        <g
           id="_198302696">
          <path
             style="fill:#4e7896"
             id="_227268128"
             d="m 82.6262,243.321 c 0,0 -11.9391,7.2672 8.30525,9.34351 24.3967,3.11437 37.3741,2.59576 64.3663,-2.59534 0,0 7.2672,4.67165 17.1297,8.30546 -60.7327,25.9542 -137.557,-1.5577 -89.8013,-15.0536 z m -7.78643,-33.7402 c 0,0 -12.9769,9.86233 7.2672,11.9386 26.4735,2.59576 47.2368,3.11437 83.0534,-4.15263 0,0 4.67186,5.19089 12.4579,7.78643 -73.1906,21.8016 -155.206,2.07631 -102.778,-15.5725 z m 143.267,59.1754 c 0,0 8.82449,7.26741 -9.86254,12.9769 -34.7787,10.3818 -145.863,13.4961 -177.008,0 -10.9006,-4.67144 9.86275,-11.4198 16.6105,-12.4579 6.74817,-1.55708 10.3816,-1.55708 10.3816,-1.55708 -11.9384,-8.30546 -79.4195,17.1295 -34.2595,24.3967 124.061,20.2443 226.321,-8.82428 194.137,-23.3587 z M 88.33577,174.283 c 0,0 -56.5799,13.4961 -20.2439,18.1678 15.5725,2.0761 46.1983,1.5575 74.7481,-0.51903 23.3585,-2.07631 46.7176,-6.22894 46.7176,-6.22894 0,0 -8.30546,3.63339 -14.0156,7.26741 -57.6179,15.053 -168.183,8.30504 -136.519,-7.26741 26.9923,-12.9773 49.3125,-11.4198 49.3125,-11.4198 z m 101.222,56.5799 c 58.1372,-30.1069 31.1451,-59.1754 12.4579,-55.5416 -4.67186,1.03805 -6.74817,2.07631 -6.74817,2.07631 0,0 1.55729,-3.11457 5.19068,-4.15263 36.8552,-12.9773 65.9238,38.9309 -11.9384,59.1752 0,0 0.51861,-0.51903 1.03805,-1.55729 z m -95.5117,82.0153 c 56.0613,3.63381 141.71,-2.07631 143.786,-28.5494 0,0 -4.15242,10.3818 -46.1981,18.1676 -47.7558,8.8247 -106.931,7.78643 -141.71,2.07631 0,0 7.26699,6.22915 44.122,8.30546 z"
             inkscape:connector-curvature="0" />
          <path
             style="fill:#f58219"
             id="_230367536"
             d="m 154.26,2.98539 c 0,0 32.1832,32.7022 -30.6261,82.0153 -50.3512,39.9692 -11.4198,62.8088 0,88.7629 -29.5878,-26.4728 -50.8702,-49.8319 -36.336,-71.6335 21.2828,-32.1832 79.939,-47.7554 66.9621,-99.1446 z m -16.6105,148.977 c 15.053,17.1299 -4.15283,32.7026 -4.15283,32.7026 0,0 38.4121,-19.7253 20.7633,-44.1224 -16.0919,-23.3585 -28.5498,-34.7783 38.9311,-73.7098 0,0 -106.412,26.4735 -55.5416,85.1297 z m -38.4123,278.748 v -50.8702 c 0,-12.9775 -7.2672,-21.8016 -25.4354,-21.8016 -10.3816,0 -19.2061,2.59534 -26.9925,5.7097 l 2.59576,9.34351 c 5.7097,-2.07631 12.9769,-4.15283 20.7633,-4.15283 9.86254,0 14.5342,4.15283 14.5342,12.4583 v 6.74817 h -5.19068 c -24.9162,0 -36.336,9.34351 -36.336,24.3967 0,12.4581 7.78623,19.7253 21.8016,19.7253 8.82428,0 15.5727,-4.15283 21.8016,-9.34351 l 1.03826,7.78643 h 11.4198 z m -14.5346,-16.6109 c -5.19068,4.67165 -10.9008,7.26741 -16.0917,7.26741 -6.74776,0 -10.9004,-4.15263 -10.9004,-11.4198 0,-7.26741 4.15263,-12.4581 20.7633,-12.4581 h 6.22873 v 16.6105 z m 63.3285,16.6109 h -18.1684 l -21.8014,-71.1147 h 15.5727 l 13.4961,43.603 3.11437,12.9771 c 6.74817,-18.6868 11.9393,-37.8933 14.0156,-56.5801 h 15.5725 c -4.15263,23.3589 -11.4196,48.7937 -21.8014,71.1147 z m 84.0914,0 v -50.8702 c 0,-12.9775 -7.2672,-21.8016 -25.4352,-21.8016 -10.3818,0 -19.2061,2.59534 -26.9925,5.7097 l 2.07652,9.34351 c 6.22894,-2.07631 13.4961,-4.15283 21.2826,-4.15283 9.86254,0 14.5342,4.15283 14.5342,12.4583 v 6.74817 h -5.19068 c -24.9162,0 -36.336,9.34351 -36.336,24.3967 0,12.4581 7.2672,19.7253 21.2824,19.7253 9.34351,0 16.0917,-4.15283 22.3208,-9.34351 l 1.03826,7.78643 h 11.4196 z m -14.5344,-16.6109 c -5.19068,4.67165 -10.9008,7.26741 -16.0919,7.26741 -6.74776,0 -10.9004,-4.15263 -10.9004,-11.4198 0,-7.26741 4.15263,-12.4581 20.7633,-12.4581 h 6.22894 v 16.6105 z m -190.504,28.5496 c -4.15263,6.22894 -10.3818,10.901 -18.1676,13.4961 l -6.74838,-8.30546 c 5.19068,-3.11437 10.3818,-7.78581 12.4579,-11.9386 2.07631,-3.6336 2.59576,-8.8247 2.59576,-20.7633 v -80.977 h 15.5725 v 79.9388 c 0,16.0915 -1.55729,22.3204 -5.71012,28.5496 z"
             inkscape:connector-curvature="0" />
        </g>
      </g>
    </g>
  </g>
</svg>
